<svg width="218mm" height="213mm" version="1.1" viewBox="0 0 218 213" xmlns="http://www.w3.org/2000/svg"><rect width="218" height="213" fill="#fff"/>
 <g fill="none" stroke="#000"><path d="m17 5h-4m4 39h-4m4 39h-4m4 39h-4m4 39h-4m4 39h-4m199 0v4m-39-4v4m-39-4v4m-39-4 0 4m-39-4v4m-39-4v4" stroke-width=".5"/>
 <g stroke-width=".7"> <rect x="17" y="5" width="195" height="195"/> <rect x="141" y="5" width="71" height="38"/><path d="m146 12h12m-138.8-7c1 36.7 1.3 73.5 6.3 109.9 2.9 18.4 7.3 38.3 21.6 51.3 13.9 12.3 32.6 16.6 50.3 19.8 33.2 5.5 66.8 6.9 100.4 8.3 4.9.2 9.8.4 14.7.5" stroke="#00f"/><path d="m146 20h12m-141 102c22.7 22.9 51 39.9 81.4 50.5 36.7 12.8 75.5 17.9 114.1 21.1" stroke="#f00"/><path d="m146 28h12m-141 172c.2-16.7 4.3-34.1 15.1-47.2 6-7.5 15.8-11.9 25.4-10.8 13.8 1.5 26 8.7 38 15.1 20.3 11.5 41.1 22.6 63.6 29.3 17.4 5.3 35.4 8.3 53.4 10.1" stroke="#f0f"/><path d="m146 36h12m-141 164c9.3-.1 19.9.8 27.4-5.8 9.4-8.6 13.3-21.3 17.2-33.1 9.5-31 13.9-63.4 22.7-94.6 1.7-4.5 2.6-10 6.7-12.9 3.4-.7 4.6 3.8 5.7 6.2 5.5 16.4 7.6 33.7 10.6 50.7 4 23.5 6.9 47.3 13.7 70.2 2.5 7.2 5.5 16.2 13.7 18.4 8.2 1.6 16.6.6 24.9.9h53" stroke="#0f0"/></g></g>
 <g font-family="Times" font-size="8.5px"><text x="163" y="14">位 = 1, k = 0.5</text><text x="163" y="22">位 = 1, k = 1.0</text><text x="163" y="30">位 = 1, k = 1.5</text><text x="163" y="38">位 = 1, k = 5.0</text>
 <g text-anchor="middle"><text x="17" y="210">0.0</text><text x="95" y="210">1.0</text><text x="56" y="210">0.5</text><text x="134" y="210">1.5</text><text x="173" y="210">2.0</text><text x="212" y="210">2.5</text></g>
 <g text-anchor="end"><text x="12" y="203">0.0</text><text x="12" y="164">0.5</text><text x="12" y="125">1.0</text><text x="12" y="86">1.5</text><text x="12" y="47">2.0</text><text x="12" y="8">2.5</text></g></g></svg>
